# xmcd
#
# Track frame offsets: 
#        150
#        19357
#        35712
#        52402
#        71477
#        88037
#        100102
#        120652
#        139847
#        153680
#
# Disc length: 2298 seconds
#
# Revision: 2
# Processed by: cddbd v1.4PL0 Copyright (c) Steve Scherf et al.
# Submitted via: ExactAudioCopy v0.90b4
#
DISCID=9208f80a
DTITLE=Ronnie Milsap - Branson City Limits
DYEAR=1900
DGENRE=Country
TTITLE0=Lost In The Fifties Tonight (In The Still Of The Night)
TTITLE1=It Was Almost Like A Song
TTITLE2=Smokey Mountain Rain
TTITLE3=Stranger In My House
TTITLE4=Any Day Now
TTITLE5=My Heart
TTITLE6=In Love
TTITLE7=Since I Don't Have You
TTITLE8=Snap Your Fingers
TTITLE9=Prisoner Of The Highway
EXTD=
EXTT0=
EXTT1=
EXTT2=
EXTT3=
EXTT4=
EXTT5=
EXTT6=
EXTT7=
EXTT8=
EXTT9=
PLAYORDER=
